<?xml version="1.0" encoding="utf-8"?>
<!-- Generator: Adobe Illustrator 27.7.0, SVG Export Plug-In . SVG Version: 6.00 Build 0)  -->
<svg version="1.1" id="Calque_1" xmlns="http://www.w3.org/2000/svg" xmlns:xlink="http://www.w3.org/1999/xlink" x="0px" y="0px"
	 viewBox="0 0 595.28 841.89" style="enable-background:new 0 0 595.28 841.89;" xml:space="preserve">
<style type="text/css">
	.st0{fill:#0A271A;}
	.st1{font-family:'Alice-Regular';}
	.st2{font-size:26.1269px;}
	.st3{fill:#82BD52;}
	.st4{font-size:9.5007px;}
	.st5{fill:none;stroke:#036A43;stroke-width:1.1876;stroke-miterlimit:10;}
	.st6{fill:none;stroke:#82BD52;stroke-width:1.7181;stroke-miterlimit:10;}
</style>
<g>
	<text transform="matrix(1 0 0 1 238.2886 468.8241)" class="st0 st1 st2">BeauTee</text>
	<text transform="matrix(1 0 0 1 256.4526 483.9628)" class="st3 st1 st4">Beauty Products</text>
	<g>
		
			<ellipse transform="matrix(0.2261 -0.9741 0.9741 0.2261 -160.3866 590.4149)" class="st5" cx="291.37" cy="396.14" rx="38.01" ry="38.01"/>
		<ellipse class="st5" cx="295.47" cy="396.14" rx="39" ry="38.01"/>
		<ellipse class="st5" cx="291.09" cy="393.83" rx="41.41" ry="40.33"/>
		<g>
			<path class="st5" d="M336.41,381.08c-0.23,1.37-1.11,2.35-1.96,2.21c-0.85-0.15-1.34-1.37-1.11-2.74
				c0.23-1.37,1.11-2.35,1.96-2.21C336.15,378.49,336.64,379.71,336.41,381.08z"/>
			<line class="st5" x1="334.88" y1="380.81" x2="333.64" y2="387.99"/>
		</g>
		<g>
			<path class="st5" d="M261.74,402.36c-0.23,1.37-1.11,2.35-1.96,2.21c-0.85-0.15-1.34-1.37-1.11-2.74
				c0.23-1.37,1.11-2.35,1.96-2.21C261.48,399.77,261.98,400.99,261.74,402.36z"/>
			<line class="st5" x1="260.21" y1="402.1" x2="258.98" y2="409.28"/>
		</g>
		<g>
			<path class="st5" d="M250.74,380.46c0.18,1.37-0.36,2.58-1.21,2.69c-0.85,0.11-1.69-0.91-1.87-2.29
				c-0.18-1.37,0.36-2.58,1.21-2.69C249.72,378.06,250.56,379.09,250.74,380.46z"/>
			<line class="st5" x1="249.2" y1="380.66" x2="250.14" y2="387.89"/>
		</g>
		<g>
			<path class="st5" d="M328.14,392.23c0.48,1.3,0.21,2.59-0.6,2.89c-0.81,0.29-1.84-0.52-2.32-1.82c-0.48-1.3-0.21-2.59,0.6-2.89
				C326.63,390.12,327.67,390.93,328.14,392.23z"/>
			<line class="st5" x1="326.68" y1="392.77" x2="329.19" y2="399.61"/>
		</g>
		<line class="st5" x1="263.58" y1="414.79" x2="263.58" y2="418.01"/>
		<line class="st5" x1="249.68" y1="404.14" x2="251.34" y2="405.19"/>
		<line class="st5" x1="250.78" y1="391.69" x2="249.68" y2="393.83"/>
		<line class="st5" x1="280.3" y1="431.17" x2="279.54" y2="429.2"/>
		<line class="st5" x1="326.68" y1="405.84" x2="327.41" y2="408.27"/>
		<line class="st5" x1="329.96" y1="401.49" x2="328.71" y2="403.29"/>
		<line class="st5" x1="331.26" y1="390.46" x2="332.48" y2="392.33"/>
		<line class="st5" x1="335.73" y1="395.68" x2="334.37" y2="398.62"/>
	</g>
	<g>
		<path class="st6" d="M300.03,394.69c0,10.32-7.75,15.18-7.75,15.18s-7.75-4.87-7.75-15.18s5.31-14.02,7.75-22.18
			C294.74,380.84,300.03,384.37,300.03,394.69z"/>
		<path class="st6" d="M305.4,402.38c-4.96,7.63-13.03,7.5-13.03,7.5s-3.39-7.32,1.57-14.95c4.96-7.63,10.66-7.81,16.39-12.67
			C308.15,389.6,310.36,394.75,305.4,402.38z"/>
		<path class="st6" d="M305.79,409.59c-7.12,3.81-13.33,0.26-13.33,0.26s0.5-7.14,7.61-10.95c7.12-3.81,11.63-1.51,18.16-2.84
			C313.39,400.83,312.91,405.79,305.79,409.59z"/>
		<path class="st6" d="M278.69,402.38c4.96,7.63,13.03,7.5,13.03,7.5s3.39-7.32-1.57-14.95c-4.96-7.63-10.66-7.81-16.39-12.67
			C275.94,389.6,273.73,394.75,278.69,402.38z"/>
		<path class="st6" d="M278.3,409.59c7.12,3.81,13.33,0.26,13.33,0.26s-0.5-7.14-7.61-10.95s-11.63-1.51-18.16-2.84
			C270.7,400.83,271.18,405.79,278.3,409.59z"/>
		<line class="st6" x1="292.04" y1="409.87" x2="292.04" y2="420.74"/>
	</g>
</g>
</svg>
